<svg width="52" height="49" viewBox="0 0 52 49" fill="none" xmlns="http://www.w3.org/2000/svg">
<circle cx="38" cy="14" r="14" fill="#EC6E4C"/>
<path fill-rule="evenodd" clip-rule="evenodd" d="M16.469 30.023C14.8524 32.4221 12.1105 34 9 34C4.02944 34 0 29.9706 0 25C0 20.0294 4.02944 16 9 16C9.35712 16 9.70938 16.0208 10.0556 16.0613C10.0189 15.7125 10 15.3585 10 15C10 9.47715 14.4772 5 20 5C25.0528 5 29.2304 8.74754 29.9048 13.6148C30.977 12.6131 32.4169 12 34 12C37.3137 12 40 14.6863 40 18C40 18.7533 39.8612 19.4742 39.6077 20.1385C40.0577 20.0477 40.5233 20 41 20C44.866 20 48 23.134 48 27C48 30.866 44.866 34 41 34C40.7223 34 40.4484 33.9838 40.1792 33.9524H22C21 34.1148 19 33.9524 19 32.0033C19 30.4559 17.7393 30.1028 16.469 30.023Z" fill="#F2F2F2"/>
<path fill-rule="evenodd" clip-rule="evenodd" d="M17.2991 31.75C16.5816 31.3358 15.6643 31.5816 15.25 32.2991L13.75 34.8972C13.3358 35.6146 13.5816 36.532 14.2991 36.9462C15.0165 37.3604 15.9339 37.1146 16.3481 36.3972L17.8481 33.7991C18.2623 33.0816 18.0165 32.1643 17.2991 31.75ZM31.7991 36.75C31.0816 36.3358 30.1643 36.5816 29.75 37.2991L28.75 39.0311C28.3358 39.7486 28.5816 40.666 29.2991 41.0802C30.0165 41.4944 30.9339 41.2486 31.3481 40.5311L32.3481 38.7991C32.7623 38.0816 32.5165 37.1643 31.7991 36.75ZM18.2991 44.75C17.5816 44.3358 16.6643 44.5816 16.25 45.2991L15.75 46.1651C15.3358 46.8825 15.5816 47.7999 16.2991 48.2141C17.0165 48.6284 17.9339 48.3825 18.3481 47.6651L18.8481 46.7991C19.2623 46.0816 19.0165 45.1643 18.2991 44.75ZM26.25 43.2991C26.6643 42.5816 27.5816 42.3358 28.2991 42.75C29.0165 43.1643 29.2623 44.0816 28.8481 44.7991L27.3481 47.3972C26.9339 48.1146 26.0165 48.3604 25.2991 47.9462C24.5816 47.532 24.3358 46.6146 24.75 45.8972L26.25 43.2991ZM22.2991 37.75C21.5816 37.3358 20.6643 37.5816 20.25 38.2991L18.75 40.8972C18.3358 41.6146 18.5816 42.532 19.2991 42.9462C20.0165 43.3604 20.9339 43.1146 21.3481 42.3972L22.8481 39.7991C23.2623 39.0816 23.0165 38.1643 22.2991 37.75ZM11.25 38.2991C11.6643 37.5816 12.5816 37.3358 13.2991 37.75C14.0165 38.1643 14.2623 39.0816 13.8481 39.7991L12.3481 42.3972C11.9339 43.1146 11.0165 43.3604 10.2991 42.9462C9.58164 42.532 9.33583 41.6146 9.75004 40.8972L11.25 38.2991Z" fill="#222627"/>
</svg>
